<?xml version="1.0" encoding="utf-8"?>
<!-- Generator: Adobe Illustrator 25.3.1, SVG Export Plug-In . SVG Version: 6.00 Build 0)  -->
<svg version="1.1" id="Layer_1" xmlns="http://www.w3.org/2000/svg" xmlns:xlink="http://www.w3.org/1999/xlink" x="0px" y="0px"
	 viewBox="0 0 20 17.24" enable-background="new 0 0 20 17.24" xml:space="preserve">
<g>
	<defs>
		<rect id="SVGID_1_" width="20" height="17.24"/>
	</defs>
	<clipPath id="SVGID_2_">
		<use xlink:href="#SVGID_1_"  overflow="visible"/>
	</clipPath>
	
		<path clip-path="url(#SVGID_2_)" fill="none" stroke="#000000" stroke-width="0.7213" stroke-linecap="round" stroke-miterlimit="10" d="
		M17.729,6.46c0.412,0,0.748,0.337,0.748,0.748v5.221c0,0.412-0.337,0.748-0.748,0.748H7.034c-0.411,0-0.748-0.337-0.748-0.748
		V7.208c0-0.412,0.337-0.748,0.748-0.748H17.729z M17.514,16.087c0-0.438-0.355-0.793-0.792-0.793c-0.438,0-0.793,0.355-0.793,0.793
		c0,0.438,0.355,0.792,0.793,0.792C17.159,16.879,17.514,16.525,17.514,16.087z M7.635,16.087c0-0.438-0.355-0.793-0.792-0.793
		c-0.438,0-0.793,0.355-0.793,0.793c0,0.438,0.355,0.792,0.793,0.792C7.28,16.879,7.635,16.525,7.635,16.087z M2.638,5.679
		l1.338,1.298c0.248,0.24,0.415,0.717,0.371,1.06l-0.81,6.303c-0.044,0.343,0.203,0.623,0.548,0.623h15.555"/>
	<path clip-path="url(#SVGID_2_)" fill="#FFFFFF" d="M15.76,7.111c0-1.866-1.512-3.379-3.379-3.379
		c-1.866,0-3.379,1.513-3.379,3.379s1.513,3.379,3.379,3.379C14.248,10.49,15.76,8.977,15.76,7.111"/>
	
		<circle clip-path="url(#SVGID_2_)" fill="none" stroke="#000000" stroke-width="0.7213" stroke-miterlimit="10" cx="12.381" cy="7.111" r="3.379"/>

		<path clip-path="url(#SVGID_2_)" fill="none" stroke="#000000" stroke-width="0.7213" stroke-linecap="round" stroke-miterlimit="10" d="
		M3.883,10.884H1.69 M4.776,12.579H0.361 M5.027,9.188H1.246 M10.854,7.203l1.065,1.109c0.133,0.138,0.36,0.114,0.462-0.048
		l1.53-2.444"/>
	<path clip-path="url(#SVGID_2_)" d="M8.777,2.222c0.101-0.09,0.16-0.172,0.177-0.248c0.017-0.076-0.007-0.149-0.071-0.222
		C8.818,1.679,8.748,1.646,8.671,1.654C8.594,1.662,8.504,1.71,8.403,1.8L8.081,2.085l0.374,0.423L8.777,2.222z M10.289,2.527
		L9.915,2.858L9.232,2.503C9.178,2.475,9.126,2.468,9.078,2.482C9.029,2.495,8.979,2.525,8.928,2.57l-0.23,0.203l0.577,0.651
		l-0.35,0.31L7.494,2.118l0.72-0.637C8.401,1.315,8.58,1.23,8.749,1.226c0.169-0.004,0.322,0.071,0.457,0.223
		c0.095,0.108,0.149,0.225,0.16,0.353c0.012,0.127-0.021,0.255-0.097,0.381c0.113-0.065,0.24-0.06,0.381,0.015L10.289,2.527z"/>
	<path clip-path="url(#SVGID_2_)" d="M10.623,2.227c-0.191-0.112-0.324-0.314-0.399-0.605L9.935,0.46l0.449-0.115l0.295,1.182
		c0.043,0.166,0.114,0.283,0.214,0.35c0.099,0.068,0.221,0.083,0.367,0.046c0.145-0.037,0.244-0.109,0.298-0.215
		c0.054-0.106,0.06-0.243,0.017-0.41l-0.296-1.181L11.732,0l0.29,1.161c0.074,0.29,0.054,0.53-0.061,0.721
		c-0.115,0.191-0.318,0.324-0.61,0.399C11.057,2.356,10.815,2.338,10.623,2.227"/>
	<path clip-path="url(#SVGID_2_)" d="M12.773,2.043c-0.138-0.073-0.248-0.158-0.329-0.256l0.217-0.301
		c0.174,0.185,0.387,0.303,0.638,0.356c0.135,0.028,0.242,0.028,0.324,0.001c0.081-0.028,0.13-0.08,0.146-0.157
		c0.014-0.067-0.008-0.127-0.066-0.18c-0.058-0.053-0.167-0.113-0.326-0.184c-0.179-0.076-0.317-0.153-0.415-0.23
		c-0.099-0.078-0.165-0.16-0.199-0.249c-0.034-0.089-0.04-0.192-0.015-0.308c0.027-0.127,0.086-0.233,0.177-0.319
		c0.091-0.087,0.206-0.145,0.344-0.175c0.138-0.029,0.291-0.028,0.457,0.007c0.15,0.031,0.29,0.083,0.419,0.155
		c0.13,0.072,0.228,0.155,0.296,0.247l-0.217,0.301c-0.156-0.181-0.347-0.295-0.57-0.341c-0.119-0.024-0.219-0.021-0.3,0.012
		c-0.081,0.032-0.13,0.089-0.147,0.171c-0.01,0.047-0.005,0.09,0.015,0.127c0.02,0.037,0.059,0.074,0.117,0.112
		c0.058,0.038,0.144,0.081,0.255,0.13c0.259,0.116,0.438,0.233,0.538,0.353c0.1,0.12,0.133,0.262,0.099,0.426
		c-0.041,0.198-0.151,0.339-0.33,0.423c-0.178,0.083-0.405,0.097-0.68,0.04C13.061,2.169,12.912,2.116,12.773,2.043"/>
</g>
<polygon points="17.175,2.07 15.787,3.723 15.432,3.425 16.015,2.73 15.249,2.087 14.666,2.781 14.31,2.483 15.698,0.83 
	16.054,1.128 15.493,1.797 16.258,2.44 16.82,1.772 "/>
<g>
</g>
<g>
</g>
<g>
</g>
<g>
</g>
<g>
</g>
<g>
</g>
</svg>
